<svg width="75" height="24" viewBox="0 0 75 24" fill="none" xmlns="http://www.w3.org/2000/svg">
<rect width="75" height="23.2503" rx="11.6252" fill="#29A6E9"/>
<ellipse cx="18.8437" cy="11.625" rx="7.31243" ry="7.3125" stroke="#F7F9FF" stroke-width="1.2"/>
<path d="M21.0078 10.8792L22.5336 9.35347C22.6564 9.23062 22.8664 9.31779 22.8664 9.49141V13.4581C22.8664 13.6317 22.6564 13.7185 22.5336 13.596L21.0078 12.0699" fill="#F7F9FF"/>
<path d="M17.3436 8.70027H20.084C20.5949 8.70027 21.009 9.11445 21.009 9.6253V13.3254C21.009 13.8363 20.5949 14.2505 20.084 14.2505H15.382C14.8712 14.2505 14.457 13.8363 14.457 13.3254V9.6253C14.457 9.11445 14.8712 8.70027 15.382 8.70027H16.1627" fill="#F7F9FF"/>
<path d="M34.6582 8.23047L32.1094 15.625H30.5684L33.7793 7.09375H34.7637L34.6582 8.23047ZM36.791 15.625L34.2363 8.23047L34.125 7.09375H35.1152L38.3379 15.625H36.791ZM36.668 12.4609V13.627H32.0273V12.4609H36.668ZM45.5215 12.4434H43.3008V11.2773H45.5215C45.9082 11.2773 46.2207 11.2148 46.459 11.0898C46.6973 10.9648 46.8711 10.793 46.9805 10.5742C47.0938 10.3516 47.1504 10.0977 47.1504 9.8125C47.1504 9.54297 47.0938 9.29102 46.9805 9.05664C46.8711 8.81836 46.6973 8.62695 46.459 8.48242C46.2207 8.33789 45.9082 8.26562 45.5215 8.26562H43.752V15.625H42.2812V7.09375H45.5215C46.1816 7.09375 46.7422 7.21094 47.2031 7.44531C47.668 7.67578 48.0215 7.99609 48.2637 8.40625C48.5059 8.8125 48.627 9.27734 48.627 9.80078C48.627 10.3516 48.5059 10.8242 48.2637 11.2188C48.0215 11.6133 47.668 11.916 47.2031 12.127C46.7422 12.3379 46.1816 12.4434 45.5215 12.4434ZM49.4531 12.5254V12.3906C49.4531 11.9336 49.5195 11.5098 49.6523 11.1191C49.7852 10.7246 49.9766 10.3828 50.2266 10.0938C50.4805 9.80078 50.7891 9.57422 51.1523 9.41406C51.5195 9.25 51.9336 9.16797 52.3945 9.16797C52.8594 9.16797 53.2734 9.25 53.6367 9.41406C54.0039 9.57422 54.3145 9.80078 54.5684 10.0938C54.8223 10.3828 55.0156 10.7246 55.1484 11.1191C55.2812 11.5098 55.3477 11.9336 55.3477 12.3906V12.5254C55.3477 12.9824 55.2812 13.4062 55.1484 13.7969C55.0156 14.1875 54.8223 14.5293 54.5684 14.8223C54.3145 15.1113 54.0059 15.3379 53.6426 15.502C53.2793 15.6621 52.8672 15.7422 52.4062 15.7422C51.9414 15.7422 51.5254 15.6621 51.1582 15.502C50.7949 15.3379 50.4863 15.1113 50.2324 14.8223C49.9785 14.5293 49.7852 14.1875 49.6523 13.7969C49.5195 13.4062 49.4531 12.9824 49.4531 12.5254ZM50.8652 12.3906V12.5254C50.8652 12.8105 50.8945 13.0801 50.9531 13.334C51.0117 13.5879 51.1035 13.8105 51.2285 14.002C51.3535 14.1934 51.5137 14.3438 51.709 14.4531C51.9043 14.5625 52.1367 14.6172 52.4062 14.6172C52.668 14.6172 52.8945 14.5625 53.0859 14.4531C53.2812 14.3438 53.4414 14.1934 53.5664 14.002C53.6914 13.8105 53.7832 13.5879 53.8418 13.334C53.9043 13.0801 53.9355 12.8105 53.9355 12.5254V12.3906C53.9355 12.1094 53.9043 11.8438 53.8418 11.5938C53.7832 11.3398 53.6895 11.1152 53.5605 10.9199C53.4355 10.7246 53.2754 10.5723 53.0801 10.4629C52.8887 10.3496 52.6602 10.293 52.3945 10.293C52.1289 10.293 51.8984 10.3496 51.7031 10.4629C51.5117 10.5723 51.3535 10.7246 51.2285 10.9199C51.1035 11.1152 51.0117 11.3398 50.9531 11.5938C50.8945 11.8438 50.8652 12.1094 50.8652 12.3906ZM60.3984 14.3125V6.625H61.8164V15.625H60.5332L60.3984 14.3125ZM56.2734 12.5254V12.4023C56.2734 11.9219 56.3301 11.4844 56.4434 11.0898C56.5566 10.6914 56.7207 10.3496 56.9355 10.0645C57.1504 9.77539 57.4121 9.55469 57.7207 9.40234C58.0293 9.24609 58.377 9.16797 58.7637 9.16797C59.1465 9.16797 59.4824 9.24219 59.7715 9.39062C60.0605 9.53906 60.3066 9.75195 60.5098 10.0293C60.7129 10.3027 60.875 10.6309 60.9961 11.0137C61.1172 11.3926 61.2031 11.8145 61.2539 12.2793V12.6719C61.2031 13.125 61.1172 13.5391 60.9961 13.9141C60.875 14.2891 60.7129 14.6133 60.5098 14.8867C60.3066 15.1602 60.0586 15.3711 59.7656 15.5195C59.4766 15.668 59.1387 15.7422 58.752 15.7422C58.3691 15.7422 58.0234 15.6621 57.7148 15.502C57.4102 15.3418 57.1504 15.1172 56.9355 14.8281C56.7207 14.5391 56.5566 14.1992 56.4434 13.8086C56.3301 13.4141 56.2734 12.9863 56.2734 12.5254ZM57.6855 12.4023V12.5254C57.6855 12.8145 57.7109 13.084 57.7617 13.334C57.8164 13.584 57.9004 13.8047 58.0137 13.9961C58.127 14.1836 58.2734 14.332 58.4531 14.4414C58.6367 14.5469 58.8555 14.5996 59.1094 14.5996C59.4297 14.5996 59.6934 14.5293 59.9004 14.3887C60.1074 14.248 60.2695 14.0586 60.3867 13.8203C60.5078 13.5781 60.5898 13.3086 60.6328 13.0117V11.9512C60.6094 11.7207 60.5605 11.5059 60.4863 11.3066C60.416 11.1074 60.3203 10.9336 60.1992 10.7852C60.0781 10.6328 59.9277 10.5156 59.748 10.4336C59.5723 10.3477 59.3633 10.3047 59.1211 10.3047C58.8633 10.3047 58.6445 10.3594 58.4648 10.4688C58.2852 10.5781 58.1367 10.7285 58.0195 10.9199C57.9062 11.1113 57.8223 11.334 57.7676 11.5879C57.7129 11.8418 57.6855 12.1133 57.6855 12.4023Z" fill="#F7F9FF"/>
</svg>
