<svg width="12" height="12" viewBox="0 0 12 12" fill="none" xmlns="http://www.w3.org/2000/svg">
<path d="M3.986 4.943H8.016M3.986 7.057H6.86M6.001 10.625C7.00569 10.6248 7.98299 10.2974 8.7851 9.69241C9.5872 9.0874 10.1705 8.23766 10.4467 7.27169C10.723 6.30572 10.6772 5.27607 10.3162 4.33845C9.9553 3.40083 9.29886 2.60624 8.44619 2.07486C7.59353 1.54347 6.59102 1.30418 5.59028 1.39319C4.58953 1.48219 3.64499 1.89465 2.89949 2.56818C2.15399 3.24171 1.64809 4.13967 1.45828 5.12627C1.26848 6.11288 1.40511 7.13445 1.8475 8.0365C1.9015 8.1465 1.9195 8.2705 1.892 8.3895L1.484 10.1575C1.4725 10.2071 1.47382 10.2588 1.48783 10.3078C1.50185 10.3568 1.5281 10.4014 1.56412 10.4374C1.60013 10.4734 1.64472 10.4997 1.69369 10.5137C1.74266 10.5277 1.79438 10.529 1.844 10.5175L3.6115 10.109C3.73084 10.0829 3.85554 10.0988 3.9645 10.154C4.5982 10.4652 5.29502 10.6264 6.001 10.625Z" stroke="#29A6E9" stroke-width="0.87" stroke-linecap="round" stroke-linejoin="round"/>
</svg>
