<svg width="62" height="23" viewBox="0 0 62 23" fill="none" xmlns="http://www.w3.org/2000/svg">
<rect x="0.5" y="0.5" width="61" height="22" rx="11" stroke="#29A6E9"/>
<path d="M11.73 9.98026H17.5233M11.73 13.0192H15.8615M14.6267 18.1484C16.071 18.1481 17.4759 17.6775 18.629 16.8078C19.782 15.9381 20.6205 14.7165 21.0177 13.3279C21.4148 11.9392 21.3489 10.4591 20.8301 9.11119C20.3112 7.76331 19.3675 6.62105 18.1418 5.85715C16.916 5.09326 15.4749 4.74927 14.0362 4.87722C12.5976 5.00517 11.2398 5.5981 10.1681 6.56633C9.0964 7.53456 8.36914 8.82543 8.09629 10.2437C7.82344 11.662 8.01985 13.1306 8.65581 14.4273C8.73343 14.5855 8.75931 14.7637 8.71978 14.9348L8.13326 17.4764C8.11672 17.5477 8.11862 17.6221 8.13877 17.6925C8.15892 17.7628 8.19666 17.8269 8.24843 17.8787C8.3002 17.9305 8.3643 17.9682 8.43469 17.9884C8.50509 18.0085 8.57945 18.0104 8.65077 17.9939L11.1916 17.4067C11.3632 17.3691 11.5425 17.3919 11.6991 17.4713C12.6101 17.9187 13.6118 18.1504 14.6267 18.1484Z" stroke="#29A6E9" stroke-width="1.2" stroke-linecap="round" stroke-linejoin="round"/>
<path d="M34.9062 12.7227H36.3711C36.3242 13.2812 36.168 13.7793 35.9023 14.2168C35.6367 14.6504 35.2637 14.9922 34.7832 15.2422C34.3027 15.4922 33.7188 15.6172 33.0312 15.6172C32.5039 15.6172 32.0293 15.5234 31.6074 15.3359C31.1855 15.1445 30.8242 14.875 30.5234 14.5273C30.2227 14.1758 29.9922 13.752 29.832 13.2559C29.6758 12.7598 29.5977 12.2051 29.5977 11.5918V10.8828C29.5977 10.2695 29.6777 9.71484 29.8379 9.21875C30.002 8.72266 30.2363 8.29883 30.541 7.94727C30.8457 7.5918 31.2109 7.32031 31.6367 7.13281C32.0664 6.94531 32.5488 6.85156 33.084 6.85156C33.7637 6.85156 34.3379 6.97656 34.8066 7.22656C35.2754 7.47656 35.6387 7.82227 35.8965 8.26367C36.1582 8.70508 36.3184 9.21094 36.377 9.78125H34.9121C34.873 9.41406 34.7871 9.09961 34.6543 8.83789C34.5254 8.57617 34.334 8.37695 34.0801 8.24023C33.8262 8.09961 33.4941 8.0293 33.084 8.0293C32.748 8.0293 32.4551 8.0918 32.2051 8.2168C31.9551 8.3418 31.7461 8.52539 31.5781 8.76758C31.4102 9.00977 31.2832 9.30859 31.1973 9.66406C31.1152 10.0156 31.0742 10.418 31.0742 10.8711V11.5918C31.0742 12.0215 31.1113 12.4121 31.1855 12.7637C31.2637 13.1113 31.3809 13.4102 31.5371 13.6602C31.6973 13.9102 31.9004 14.1035 32.1465 14.2402C32.3926 14.377 32.6875 14.4453 33.0312 14.4453C33.4492 14.4453 33.7871 14.3789 34.0449 14.2461C34.3066 14.1133 34.5039 13.9199 34.6367 13.666C34.7734 13.4082 34.8633 13.0938 34.9062 12.7227ZM38.9609 6.5V15.5H37.5547V6.5H38.9609ZM38.7148 12.0957L38.2578 12.0898C38.2617 11.6523 38.3223 11.248 38.4395 10.877C38.5605 10.5059 38.7285 10.1836 38.9434 9.91016C39.1621 9.63281 39.4238 9.41992 39.7285 9.27148C40.0332 9.11914 40.3711 9.04297 40.7422 9.04297C41.0547 9.04297 41.3359 9.08594 41.5859 9.17188C41.8398 9.25781 42.0586 9.39648 42.2422 9.58789C42.4258 9.77539 42.5645 10.0215 42.6582 10.3262C42.7559 10.627 42.8047 10.9941 42.8047 11.4277V15.5H41.3867V11.416C41.3867 11.1113 41.3418 10.8691 41.252 10.6895C41.166 10.5098 41.0391 10.3809 40.8711 10.3027C40.7031 10.2207 40.498 10.1797 40.2559 10.1797C40.002 10.1797 39.7773 10.2305 39.582 10.332C39.3906 10.4336 39.2305 10.5723 39.1016 10.748C38.9727 10.9238 38.875 11.127 38.8086 11.3574C38.7461 11.5879 38.7148 11.834 38.7148 12.0957ZM47.8086 14.2285V11.2051C47.8086 10.9785 47.7676 10.7832 47.6855 10.6191C47.6035 10.4551 47.4785 10.3281 47.3105 10.2383C47.1465 10.1484 46.9395 10.1035 46.6895 10.1035C46.459 10.1035 46.2598 10.1426 46.0918 10.2207C45.9238 10.2988 45.793 10.4043 45.6992 10.5371C45.6055 10.6699 45.5586 10.8203 45.5586 10.9883H44.1523C44.1523 10.7383 44.2129 10.4961 44.334 10.2617C44.4551 10.0273 44.6309 9.81836 44.8613 9.63477C45.0918 9.45117 45.3672 9.30664 45.6875 9.20117C46.0078 9.0957 46.3672 9.04297 46.7656 9.04297C47.2422 9.04297 47.6641 9.12305 48.0312 9.2832C48.4023 9.44336 48.6934 9.68555 48.9043 10.0098C49.1191 10.3301 49.2266 10.7324 49.2266 11.2168V14.0352C49.2266 14.3242 49.2461 14.584 49.2852 14.8145C49.3281 15.041 49.3887 15.2383 49.4668 15.4062V15.5H48.0195C47.9531 15.3477 47.9004 15.1543 47.8613 14.9199C47.8262 14.6816 47.8086 14.4512 47.8086 14.2285ZM48.0137 11.6445L48.0254 12.5176H47.0117C46.75 12.5176 46.5195 12.543 46.3203 12.5938C46.1211 12.6406 45.9551 12.7109 45.8223 12.8047C45.6895 12.8984 45.5898 13.0117 45.5234 13.1445C45.457 13.2773 45.4238 13.4277 45.4238 13.5957C45.4238 13.7637 45.4629 13.918 45.541 14.0586C45.6191 14.1953 45.7324 14.3027 45.8809 14.3809C46.0332 14.459 46.2168 14.498 46.4316 14.498C46.7207 14.498 46.9727 14.4395 47.1875 14.3223C47.4062 14.2012 47.5781 14.0547 47.7031 13.8828C47.8281 13.707 47.8945 13.541 47.9023 13.3848L48.3594 14.0117C48.3125 14.1719 48.2324 14.3438 48.1191 14.5273C48.0059 14.7109 47.8574 14.8867 47.6738 15.0547C47.4941 15.2188 47.2773 15.3535 47.0234 15.459C46.7734 15.5645 46.4844 15.6172 46.1562 15.6172C45.7422 15.6172 45.373 15.5352 45.0488 15.3711C44.7246 15.2031 44.4707 14.9785 44.2871 14.6973C44.1035 14.4121 44.0117 14.0898 44.0117 13.7305C44.0117 13.3945 44.0742 13.0977 44.1992 12.8398C44.3281 12.5781 44.5156 12.3594 44.7617 12.1836C45.0117 12.0078 45.3164 11.875 45.6758 11.7852C46.0352 11.6914 46.4453 11.6445 46.9062 11.6445H48.0137ZM53.6094 9.16016V10.1914H50.0352V9.16016H53.6094ZM51.0664 7.60742H52.4785V13.748C52.4785 13.9434 52.5059 14.0938 52.5605 14.1992C52.6191 14.3008 52.6992 14.3691 52.8008 14.4043C52.9023 14.4395 53.0215 14.457 53.1582 14.457C53.2559 14.457 53.3496 14.4512 53.4395 14.4395C53.5293 14.4277 53.6016 14.416 53.6562 14.4043L53.6621 15.4824C53.5449 15.5176 53.4082 15.5488 53.252 15.5762C53.0996 15.6035 52.9238 15.6172 52.7246 15.6172C52.4004 15.6172 52.1133 15.5605 51.8633 15.4473C51.6133 15.3301 51.418 15.1406 51.2773 14.8789C51.1367 14.6172 51.0664 14.2695 51.0664 13.8359V7.60742Z" fill="#29A6E9"/>
</svg>
