<svg width="22" height="22" viewBox="0 0 22 22" fill="none" xmlns="http://www.w3.org/2000/svg">
<path d="M1.99128 15.3354C2.13826 15.7061 2.17098 16.1124 2.08524 16.5019L1.02068 19.7905C0.986381 19.9573 0.99525 20.13 1.04645 20.2924C1.09765 20.4548 1.18947 20.6014 1.31323 20.7184C1.43698 20.8353 1.58855 20.9187 1.75358 20.9607C1.9186 21.0026 2.0916 21.0017 2.25617 20.958L5.66775 19.9604C6.03531 19.8875 6.41596 19.9194 6.76629 20.0524C8.90079 21.0492 11.3188 21.2601 13.5936 20.6479C15.8684 20.0356 17.8539 18.6396 19.1998 16.7062C20.5457 14.7727 21.1654 12.426 20.9497 10.0801C20.7339 7.73421 19.6966 5.5399 18.0207 3.88432C16.3447 2.22874 14.1379 1.21828 11.7896 1.03121C9.44124 0.844147 7.10228 1.4925 5.18539 2.86189C3.2685 4.23128 1.89685 6.23369 1.31245 8.51583C0.72806 10.798 0.968474 13.2132 1.99128 15.3354Z" stroke="#9CA3AF" stroke-width="1.99917" stroke-linecap="round" stroke-linejoin="round"/>
</svg>
