<svg width="24" height="24" viewBox="0 0 24 24" fill="none" xmlns="http://www.w3.org/2000/svg">
<path d="M14.9936 20.9912V12.9946C14.9936 12.7295 14.8883 12.4752 14.7008 12.2878C14.5134 12.1003 14.2591 11.995 13.994 11.995H9.99568C9.73057 11.995 9.47632 12.1003 9.28887 12.2878C9.10141 12.4752 8.99609 12.7295 8.99609 12.9946V20.9912" stroke="#9CA3AF" stroke-width="1.99917" stroke-linecap="round" stroke-linejoin="round"/>
<path d="M3 9.99581C2.99993 9.70499 3.06331 9.41767 3.18571 9.15387C3.30811 8.89008 3.4866 8.65616 3.7087 8.46844L10.7058 2.47094C11.0666 2.16598 11.5238 1.99866 11.9963 1.99866C12.4687 1.99866 12.9259 2.16598 13.2867 2.47094L20.2838 8.46844C20.5059 8.65616 20.6844 8.89008 20.8068 9.15387C20.9292 9.41767 20.9926 9.70499 20.9925 9.99581V18.9921C20.9925 19.5223 20.7819 20.0308 20.407 20.4057C20.032 20.7806 19.5236 20.9912 18.9933 20.9912H4.99917C4.46896 20.9912 3.96046 20.7806 3.58554 20.4057C3.21063 20.0308 3 19.5223 3 18.9921V9.99581Z" stroke="#9CA3AF" stroke-width="1.99917" stroke-linecap="round" stroke-linejoin="round"/>
</svg>
