<svg width="61" height="15" viewBox="0 0 61 15" fill="none" xmlns="http://www.w3.org/2000/svg">
<rect width="60.3119" height="15" rx="7.5" fill="#29A6E9"/>
<path d="M10.5508 6.90414L12.0765 5.37838C12.1994 5.25552 12.4094 5.3427 12.4094 5.51631V9.48297C12.4094 9.65659 12.1994 9.7434 12.0765 9.62091L10.5508 8.09478" fill="#FDFDFE"/>
<path d="M6.88653 4.72469H9.627C10.1379 4.72469 10.552 5.13887 10.552 5.64971V9.34984C10.552 9.86072 10.1379 10.2749 9.627 10.2749H4.92501C4.41414 10.2749 4 9.86072 4 9.34984V5.64971C4 5.13887 4.41414 4.72469 4.92501 4.72469H5.70569" fill="#FDFDFE"/>
<path d="M18.2383 4.60156V11H17.1353V4.60156H18.2383ZM20.5542 7.26025V11H19.4951V6.24512H20.4927L20.5542 7.26025ZM20.3652 8.44678L20.0225 8.44238C20.0254 8.10547 20.0723 7.79639 20.1631 7.51514C20.2568 7.23389 20.3857 6.99219 20.5498 6.79004C20.7168 6.58789 20.916 6.43262 21.1475 6.32422C21.3789 6.21289 21.6367 6.15723 21.9209 6.15723C22.1494 6.15723 22.356 6.18945 22.5405 6.25391C22.728 6.31543 22.8877 6.4165 23.0195 6.55713C23.1543 6.69775 23.2568 6.88086 23.3271 7.10645C23.3975 7.3291 23.4326 7.60303 23.4326 7.92822V11H22.3691V7.92383C22.3691 7.69531 22.3354 7.51514 22.2681 7.3833C22.2036 7.24854 22.1084 7.15332 21.9824 7.09766C21.8594 7.03906 21.7056 7.00977 21.521 7.00977C21.3394 7.00977 21.1768 7.04785 21.0332 7.12402C20.8896 7.2002 20.7681 7.3042 20.6685 7.43604C20.5718 7.56787 20.4971 7.72021 20.4443 7.89307C20.3916 8.06592 20.3652 8.25049 20.3652 8.44678ZM26.0605 10.1606L27.2251 6.24512H28.3237L26.6714 11H25.9858L26.0605 10.1606ZM25.1685 6.24512L26.355 10.1782L26.4121 11H25.7266L24.0654 6.24512H25.1685ZM30.1123 6.24512V11H29.0488V6.24512H30.1123ZM28.9785 4.99707C28.9785 4.83594 29.0312 4.70264 29.1367 4.59717C29.2451 4.48877 29.3945 4.43457 29.585 4.43457C29.7725 4.43457 29.9204 4.48877 30.0288 4.59717C30.1372 4.70264 30.1914 4.83594 30.1914 4.99707C30.1914 5.15527 30.1372 5.28711 30.0288 5.39258C29.9204 5.49805 29.7725 5.55078 29.585 5.55078C29.3945 5.55078 29.2451 5.49805 29.1367 5.39258C29.0312 5.28711 28.9785 5.15527 28.9785 4.99707ZM33.4521 6.24512V7.01855H30.7715V6.24512H33.4521ZM31.5449 5.08057H32.604V9.68604C32.604 9.83252 32.6245 9.94531 32.6655 10.0244C32.7095 10.1006 32.7695 10.1519 32.8457 10.1782C32.9219 10.2046 33.0112 10.2178 33.1138 10.2178C33.187 10.2178 33.2573 10.2134 33.3247 10.2046C33.3921 10.1958 33.4463 10.187 33.4873 10.1782L33.4917 10.9868C33.4038 11.0132 33.3013 11.0366 33.1841 11.0571C33.0698 11.0776 32.938 11.0879 32.7886 11.0879C32.5454 11.0879 32.3301 11.0454 32.1426 10.9604C31.9551 10.8726 31.8086 10.7305 31.7031 10.5342C31.5977 10.3379 31.5449 10.0771 31.5449 9.75195V5.08057ZM36.3657 11.0879C36.0142 11.0879 35.6963 11.0308 35.4121 10.9165C35.1309 10.7993 34.8906 10.6367 34.6914 10.4287C34.4951 10.2207 34.3442 9.97607 34.2388 9.69482C34.1333 9.41357 34.0806 9.11035 34.0806 8.78516V8.60938C34.0806 8.2373 34.1348 7.90039 34.2432 7.59863C34.3516 7.29688 34.5024 7.03906 34.6958 6.8252C34.8892 6.6084 35.1177 6.44287 35.3813 6.32861C35.645 6.21436 35.9307 6.15723 36.2383 6.15723C36.5781 6.15723 36.8755 6.21436 37.1304 6.32861C37.3853 6.44287 37.5962 6.604 37.7632 6.81201C37.9331 7.01709 38.0591 7.26172 38.1411 7.5459C38.2261 7.83008 38.2686 8.14355 38.2686 8.48633V8.93896H34.5947V8.17871H37.2227V8.09521C37.2168 7.90479 37.1787 7.72607 37.1084 7.55908C37.041 7.39209 36.937 7.25732 36.7964 7.15479C36.6558 7.05225 36.4683 7.00098 36.2339 7.00098C36.0581 7.00098 35.9014 7.03906 35.7637 7.11523C35.6289 7.18848 35.5161 7.29541 35.4253 7.43604C35.3345 7.57666 35.2642 7.74658 35.2144 7.9458C35.1675 8.14209 35.144 8.36328 35.144 8.60938V8.78516C35.144 8.99316 35.1719 9.18652 35.2275 9.36523C35.2861 9.54102 35.3711 9.69482 35.4824 9.82666C35.5938 9.9585 35.7285 10.0625 35.8867 10.1387C36.0449 10.2119 36.2251 10.2485 36.4272 10.2485C36.6821 10.2485 36.9092 10.1973 37.1084 10.0947C37.3076 9.99219 37.4805 9.84717 37.627 9.65967L38.1851 10.2002C38.0825 10.3496 37.9492 10.4932 37.7852 10.6309C37.6211 10.7656 37.4204 10.8755 37.1831 10.9604C36.9487 11.0454 36.6763 11.0879 36.3657 11.0879Z" fill="#FDFDFE"/>
<rect x="43.6602" y="2.75" width="9.5" height="9.5" rx="4.75" fill="#1693D6"/>
<rect x="43.6602" y="2.75" width="9.5" height="9.5" rx="4.75" stroke="#138FD1" stroke-width="0.5"/>
<path d="M49.2435 9.16683L50.9102 7.50016M50.9102 7.50016L49.2435 5.8335M50.9102 7.50016H45.9102" stroke="#FDFDFE" stroke-miterlimit="10" stroke-linecap="round" stroke-linejoin="round"/>
</svg>
