<svg width="22" height="19" viewBox="0 0 22 19" fill="none" xmlns="http://www.w3.org/2000/svg">
<path d="M1 6.51349C1.00002 5.40116 1.33745 4.31499 1.96773 3.39845C2.59801 2.48191 3.49148 1.77812 4.53014 1.38003C5.5688 0.981935 6.70378 0.90827 7.78519 1.16876C8.86659 1.42925 9.84354 2.01165 10.587 2.83902C10.6394 2.89501 10.7027 2.93965 10.773 2.97017C10.8433 3.00068 10.9192 3.01643 10.9958 3.01643C11.0725 3.01643 11.1483 3.00068 11.2187 2.97017C11.289 2.93965 11.3523 2.89501 11.4047 2.83902C12.1458 2.00627 13.123 1.41898 14.2061 1.15532C15.2893 0.891668 16.4271 0.964149 17.468 1.36312C18.509 1.76209 19.4037 2.46863 20.0332 3.38869C20.6627 4.30876 20.997 5.39872 20.9917 6.51349C20.9917 8.80254 19.4923 10.5118 17.9929 12.0112L12.5032 17.322C12.317 17.5359 12.0873 17.7077 11.8295 17.8261C11.5718 17.9444 11.2918 18.0066 11.0081 18.0083C10.7245 18.0101 10.4437 17.9516 10.1845 17.8365C9.92521 17.7214 9.69341 17.5525 9.50446 17.341L3.99875 12.0112C2.49938 10.5118 1 8.81253 1 6.51349Z" stroke="#9CA3AF" stroke-width="1.99917" stroke-linecap="round" stroke-linejoin="round"/>
</svg>
