<svg width="24" height="22" viewBox="0 0 24 22" fill="none" xmlns="http://www.w3.org/2000/svg">
<path d="M2.40039 6.75H6.20996V14.1914H14.8496V15.5996C14.8496 16.5053 14.1059 17.2499 13.2002 17.25H6.88965L6.66992 17.4697L4.34961 19.7891V17.25H2.40039C1.4946 17.25 0.75 16.5054 0.75 15.5996V8.40039C0.75 7.4946 1.4946 6.75 2.40039 6.75ZM10.7998 0.75H21.5996C22.5054 0.75 23.25 1.4946 23.25 2.40039V9.59961C23.25 10.5064 22.5056 11.25 21.5996 11.25H19.6504V13.7891L17.3301 11.4697L17.1104 11.25H9.15039V2.40039C9.15039 1.49467 9.89411 0.750107 10.7998 0.75Z" stroke="#9CA3AF" stroke-width="1.5"/>
</svg>
